<svg preserveAspectRatio="none" width="100%" height="100%" overflow="visible" style="display: block;" viewBox="0 0 64 64.0005" fill="none" xmlns="http://www.w3.org/2000/svg">
<path id="Vector" d="M3.99992 22.0003H59.9999M3.99992 42.0003H59.9999M30.3335 2.00027C24.7179 10.999 21.7408 21.3932 21.7408 32.0003C21.7408 42.6074 24.7179 53.0016 30.3335 62.0003M33.6667 2.00027C39.2822 10.999 42.2593 21.3932 42.2593 32.0003C42.2593 42.6074 39.2822 53.0016 33.6667 62.0003M62 32.0003C62 48.5688 48.5685 62.0003 32 62.0003C15.4315 62.0003 2 48.5688 2 32.0003C2 15.4317 15.4315 2.00027 32 2.00027C48.5685 2.00027 62 15.4317 62 32.0003Z" stroke="var(--stroke-0, white)" stroke-width="4" stroke-linecap="round" stroke-linejoin="round"/>
</svg>
