<svg preserveAspectRatio="none" width="100%" height="100%" overflow="visible" style="display: block;" viewBox="0 0 73.0009 69.1667" fill="none" xmlns="http://www.w3.org/2000/svg">
<path id="Vector" d="M21.1671 17.3333V9.66667C21.1671 7.63334 21.9748 5.68329 23.4126 4.24551C24.8504 2.80774 26.8004 2 28.8338 2H44.1671C46.2004 2 48.1505 2.80774 49.5882 4.24551C51.026 5.68329 51.8338 7.63334 51.8338 9.66667V17.3333M36.5004 36.5V36.5383M2.00043 40.3333C12.7015 45.7256 24.5175 48.5345 36.5004 48.5345C48.4833 48.5345 60.2994 45.7256 71.0004 40.3333M9.6671 17.3333H63.3338C67.568 17.3333 71.0004 20.7658 71.0004 25V59.5C71.0004 63.7342 67.568 67.1667 63.3338 67.1667H9.6671C5.43292 67.1667 2.00043 63.7342 2.00043 59.5V25C2.00043 20.7658 5.43292 17.3333 9.6671 17.3333Z" stroke="var(--stroke-0, #3467B0)" stroke-width="4" stroke-linecap="round" stroke-linejoin="round"/>
</svg>
