<svg preserveAspectRatio="none" width="100%" height="100%" overflow="visible" style="display: block;" viewBox="0 0 73.0001 73" fill="none" xmlns="http://www.w3.org/2000/svg">
<path id="Vector" d="M25.0001 71V48C25.0001 45.9667 25.8078 44.0166 27.2456 42.5788C28.6834 41.1411 30.6334 40.3333 32.6667 40.3333H40.3334C42.3667 40.3333 44.3168 41.1411 45.7545 42.5788C47.1923 44.0166 48.0001 45.9667 48.0001 48V71M9.66672 36.5H2.00006L36.5001 2L71.0001 36.5H63.3334V63.3333C63.3334 65.3667 62.5257 67.3167 61.0879 68.7545C59.6501 70.1923 57.7001 71 55.6667 71H17.3334C15.3001 71 13.35 70.1923 11.9122 68.7545C10.4745 67.3167 9.66672 65.3667 9.66672 63.3333V36.5Z" stroke="var(--stroke-0, #86B545)" stroke-width="4" stroke-linecap="round" stroke-linejoin="round"/>
</svg>
