<svg preserveAspectRatio="none" width="100%" height="100%" overflow="visible" style="display: block;" viewBox="0 0 95 54.0001" fill="none" xmlns="http://www.w3.org/2000/svg">
<g id="Group 1">
<path id="Base" d="M41.1484 1.15636C43.8102 -0.371953 47.4975 -0.389009 50.1875 1.12706L59.7139 6.47667L52.9062 10.5323L50.5918 9.22862C47.6796 7.58731 43.7822 7.63338 40.9316 9.34288L18.4014 22.8546C13.8077 25.6094 14.0456 31.1942 18.8633 33.6905L40.8223 45.0685C43.7057 46.5625 47.4421 46.4638 50.1973 44.8214L68.6943 33.7941L68.6924 33.7931L87.7969 22.4083L94.8066 26.5548L95 26.6691L49.9043 52.9864C47.3402 54.3311 43.9432 54.3387 41.3691 53.005L3.2666 33.2618C-0.905941 31.0998 -1.11818 26.5027 2.84473 24.1261L41.0225 1.23057L41.1484 1.15636Z" fill="var(--fill-0, #4585C6)"/>
<path id="Check" d="M61.5889 14.9776C63.335 13.9375 65.8519 13.9802 67.707 15.0812C70.3613 16.6565 70.5176 19.6407 68.0234 21.1329L49.2871 32.3399L49.3135 32.3536L44.9922 34.9737C42.5721 36.4412 39.2875 36.603 36.8555 35.3751L27.2139 30.5069C24.582 29.1782 24.4969 26.206 27.0439 24.5489C28.9133 23.3328 31.5381 23.177 33.4561 24.1671L40.2627 27.6808L61.5889 14.9776Z" fill="var(--fill-0, #86BD45)"/>
</g>
</svg>
