<svg preserveAspectRatio="none" width="100%" height="100%" overflow="visible" style="display: block;" viewBox="0 0 40 28.1328" fill="none" xmlns="http://www.w3.org/2000/svg">
<path id="Vector" d="M39.6016 6.07031C39.6016 6.07031 39.2109 3.3125 38.0078 2.10156C36.4844 0.507813 34.7813 0.5 34 0.40625C28.4063 -2.23517e-07 20.0078 0 20.0078 0H19.9922C19.9922 0 11.5937 -2.23517e-07 6 0.40625C5.21875 0.5 3.51562 0.507813 1.99219 2.10156C0.789063 3.3125 0.40625 6.07031 0.40625 6.07031C0.40625 6.07031 0 9.3125 0 12.5469V15.5781C0 18.8125 0.398437 22.0547 0.398437 22.0547C0.398437 22.0547 0.789062 24.8125 1.98437 26.0234C3.50781 27.6172 5.50781 27.5625 6.39844 27.7344C9.60156 28.0391 20 28.1328 20 28.1328C20 28.1328 28.4063 28.1172 34 27.7188C34.7813 27.625 36.4844 27.6172 38.0078 26.0234C39.2109 24.8125 39.6016 22.0547 39.6016 22.0547C39.6016 22.0547 40 18.8203 40 15.5781V12.5469C40 9.3125 39.6016 6.07031 39.6016 6.07031ZM15.8672 19.2578V8.01563L26.6719 13.6562L15.8672 19.2578Z" fill="var(--fill-0, white)"/>
</svg>
