<svg preserveAspectRatio="none" width="100%" height="100%" overflow="visible" style="display: block;" viewBox="0 0 44 49" fill="none" xmlns="http://www.w3.org/2000/svg">
<path id="Vector" d="M42 9.5C42 13.6421 33.0457 17 22 17C10.9543 17 2 13.6421 2 9.5M42 9.5C42 5.35786 33.0457 2 22 2C10.9543 2 2 5.35786 2 9.5M42 9.5V24.5M2 9.5V24.5M2 24.5C2 26.4891 4.10714 28.3968 7.85786 29.8033C11.6086 31.2098 16.6957 32 22 32C27.3043 32 32.3914 31.2098 36.1421 29.8033C39.8929 28.3968 42 26.4891 42 24.5M2 24.5V39.5C2 41.4891 4.10714 43.3968 7.85786 44.8033C11.6086 46.2098 16.6957 47 22 47C27.3043 47 32.3914 46.2098 36.1421 44.8033C39.8929 43.3968 42 41.4891 42 39.5V24.5" stroke="var(--stroke-0, #3467B0)" stroke-width="4" stroke-linecap="round" stroke-linejoin="round"/>
</svg>
