<svg preserveAspectRatio="none" width="100%" height="100%" overflow="visible" style="display: block;" viewBox="0 0 44 44" fill="none" xmlns="http://www.w3.org/2000/svg">
<path id="Vector" d="M9.5 27L17 19.5L22 24.5L29.5 17L34.5 22M2 37V7C2 5.67392 2.52678 4.40215 3.46447 3.46447C4.40215 2.52678 5.67392 2 7 2H37C38.3261 2 39.5979 2.52678 40.5355 3.46447C41.4732 4.40215 42 5.67392 42 7V37C42 38.3261 41.4732 39.5979 40.5355 40.5355C39.5979 41.4732 38.3261 42 37 42H7C5.67392 42 4.40215 41.4732 3.46447 40.5355C2.52678 39.5979 2 38.3261 2 37Z" stroke="var(--stroke-0, #86B545)" stroke-width="4" stroke-linecap="round" stroke-linejoin="round"/>
</svg>
