<svg preserveAspectRatio="none" width="100%" height="100%" overflow="visible" style="display: block;" viewBox="0 0 95 54" fill="none" xmlns="http://www.w3.org/2000/svg">
<g id="Group 1">
<path id="Base" d="M41.1484 1.15633C43.8102 -0.37193 47.4975 -0.389016 50.1875 1.12704L59.7139 6.47665L52.9062 10.5323L50.5918 9.2286C47.6797 7.5873 43.7822 7.6334 40.9316 9.34286L18.4014 22.8546C13.8077 25.6094 14.0456 31.1942 18.8633 33.6905L40.8223 45.0684C43.7057 46.5623 47.4422 46.4637 50.1973 44.8214L68.6943 33.794L68.6924 33.7931L87.7969 22.4083L94.8066 26.5548L95 26.669L49.9043 52.9864C47.3403 54.331 43.9432 54.3385 41.3691 53.005L3.2666 33.2618C-0.905941 31.0998 -1.11818 26.5027 2.84473 24.1261L41.0225 1.23055L41.1484 1.15633Z" fill="var(--fill-0, #4585C6)"/>
<path id="Check" d="M61.5885 14.9774C63.3346 13.9373 65.8515 13.98 67.7066 15.0809C70.3606 16.6563 70.5169 19.6404 68.023 21.1327L49.2867 32.3397L49.3131 32.3534L44.9918 34.9735C42.5717 36.441 39.2871 36.6027 36.8551 35.3748L27.2135 30.5067C24.5816 29.1779 24.4965 26.2057 27.0435 24.5487C28.9129 23.3326 31.5377 23.1767 33.4556 24.1668L40.2623 27.6805L61.5885 14.9774Z" fill="var(--fill-0, #86BD45)"/>
</g>
</svg>
