<svg preserveAspectRatio="none" width="100%" height="100%" overflow="visible" style="display: block;" viewBox="0 0 27 33.6667" fill="none" xmlns="http://www.w3.org/2000/svg">
<path id="Vector" d="M1 31V27.6667C1 25.8986 1.70238 24.2029 2.95262 22.9526C4.20286 21.7024 5.89856 21 7.66667 21H9.33333M21.8333 28.5L26 32.6667M17.6667 7.66667C17.6667 11.3486 14.6819 14.3333 11 14.3333C7.3181 14.3333 4.33333 11.3486 4.33333 7.66667C4.33333 3.98477 7.3181 1 11 1C14.6819 1 17.6667 3.98477 17.6667 7.66667ZM22.6667 25.1667C22.6667 27.4679 20.8012 29.3333 18.5 29.3333C16.1988 29.3333 14.3333 27.4679 14.3333 25.1667C14.3333 22.8655 16.1988 21 18.5 21C20.8012 21 22.6667 22.8655 22.6667 25.1667Z" stroke="var(--stroke-0, white)" stroke-width="2" stroke-linecap="round" stroke-linejoin="round"/>
</svg>
